# xmcd CD database file
#
# Track frame offsets:
#	150
#	11587
#	24886
#	36233
#	50207
#	61958
#	74359
#	88369
#	99510
#	121101
#	135466
#	149093
#	164311
#	177670
#	191373
#	207195
#	219898
#	232970
#	245446
#	259670
#	275255
#	291567
#	305635
#	317959
#	330544
#	343521
#
# Disc length: 4768 seconds
#
# Revision: 0
# Processed by: cddbd v1.5.1PL0 Copyright (c) Steve Scherf et al.
# Submitted via: CDex 1.51
#
DISCID=8b129e1a
DTITLE=Charlie Parker - Proper Box - disc 3 and 4
DYEAR=1900
DGENRE=Jazz
TTITLE0=301-Barbados
TTITLE1=302-Ah-Leu_cha
TTITLE2=303-Constellation
TTITLE3=304-Parker's Mood
TTITLE4=305-Perhaps
TTITLE5=306-Marmaduke
TTITLE6=307-Steeplechase
TTITLE7=308-Merry-Go-Round
TTITLE8=309-The Bird
TTITLE9=314-Cardboard
TTITLE10=315-Visa
TTITLE11=316-Segment
TTITLE12=317-Passport
TTITLE13=318-Passport
TTITLE14=325-Star Eyes
TTITLE15=401-Blues (Fast)
TTITLE16=402-I'm In The Mood For Love
TTITLE17=411-Au Privave
TTITLE18=412-She Rote
TTITLE19=413-K C Blues
TTITLE20=414-Star Eyes
TTITLE21=415-My Little Suede Shoes
TTITLE22=416-Un Poquito De Tu Amor
TTITLE23=417-Tico Tico
TTITLE24=418-Fiesta
TTITLE25=419-Why Do I love You
EXTD=
EXTT0=
EXTT1=
EXTT2=
EXTT3=
EXTT4=
EXTT5=
EXTT6=
EXTT7=
EXTT8=
EXTT9=
EXTT10=
EXTT11=
EXTT12=
EXTT13=
EXTT14=
EXTT15=
EXTT16=
EXTT17=
EXTT18=
EXTT19=
EXTT20=
EXTT21=
EXTT22=
EXTT23=
EXTT24=
EXTT25=
PLAYORDER=
